<svg width="400" height="65" viewBox="0 0 400 65" fill="none" xmlns="http://www.w3.org/2000/svg">
<path d="M18.9046 8.0631C18.5381 8.36983 18.2912 8.75884 18.0293 9.75757C17.7638 10.76 17.8872 11.4146 17.5842 13.0717C17.2812 14.7325 17.0905 15.806 16.5144 18.0504C15.9421 20.2947 15.5681 21.6001 14.7152 24.3008C13.8624 27.0015 13.2863 28.5875 12.2502 31.5537C11.2141 34.5237 10.6156 36.1359 9.53081 39.1433C8.44606 42.1507 7.79146 43.8003 6.83014 46.5945C5.86882 49.3849 5.40874 50.825 4.72048 53.1067C4.03221 55.3885 3.72174 56.4209 3.39257 58.0031C3.05967 59.5816 2.90631 60.1951 3.05967 61.0105C3.21303 61.826 3.59831 62.0616 4.15939 62.0803C4.72422 62.0953 5.29652 61.9831 5.8763 61.0891C6.45983 60.1988 6.50472 59.3796 7.06954 57.6253C7.63436 55.8673 7.9149 54.7114 8.70416 52.3025C9.49341 49.8974 10.0059 48.4236 11.0121 45.5882C12.022 42.7492 12.5868 41.1445 13.7464 38.1109C14.9097 35.0811 15.5456 33.4577 16.8211 30.4241C18.1004 27.3905 18.8261 25.8232 20.1353 22.943C21.4482 20.0628 22.0878 18.5628 23.3783 16.0267C24.6726 13.4869 25.372 12.2562 26.5989 10.2513C27.8221 8.25012 28.4692 7.32995 29.5016 6.00954C30.534 4.69286 31.1549 4.21408 31.7572 3.65674C32.3594 3.09566 32.3369 2.91985 32.5202 3.21162C32.6998 3.50712 32.6474 3.88118 32.6698 5.1193C32.6923 6.35742 32.8082 7.28132 32.6324 9.39847C32.4566 11.5194 32.2883 12.937 31.7908 15.7163C31.2971 18.4955 30.8669 20.1937 30.1525 23.2946C29.438 26.3955 28.9779 28.1349 28.2149 31.2246C27.4518 34.3142 26.9992 35.9189 26.3334 38.7431C25.6675 41.5672 25.3571 43.0035 24.8895 45.3451C24.4219 47.6867 24.2087 48.7415 23.9918 50.451C23.7748 52.1641 23.5317 52.8599 23.8047 53.9035C24.0741 54.9433 24.5491 55.3885 25.3458 55.6578C26.1426 55.9309 26.8308 55.9458 27.7922 55.2538C28.7535 54.5618 29.0901 53.7464 30.1525 52.1978C31.2148 50.6529 31.8581 49.6505 33.1075 47.5221C34.3568 45.3975 35.0488 44.0509 36.4029 41.5709C37.7607 39.0872 38.4789 37.6695 39.8816 35.1147C41.2806 32.5599 42.0736 31.1984 43.4052 28.8007C44.7331 26.4067 45.3765 25.2023 46.5286 23.1338C47.6807 21.069 48.2006 20.0964 49.1694 18.4768C50.1382 16.8534 50.6806 16.1427 51.3651 15.028C52.0534 13.9133 52.2666 13.5654 52.6032 12.8996C52.9436 12.2338 53.0558 12.0169 53.0521 11.7026C53.0521 11.3884 52.9137 11.25 52.592 11.3286C52.274 11.4109 51.9823 11.5268 51.4549 12.0991C50.9312 12.6677 50.6432 13.0305 49.9661 14.1826C49.2891 15.3385 48.945 16.1763 48.0734 17.8671C47.1981 19.5578 46.7044 20.5378 45.6009 22.6325C44.4975 24.7235 43.8653 25.9279 42.5524 28.3331C41.2394 30.7345 40.4464 32.1036 39.0325 34.6471C37.6186 37.1907 36.8854 38.6121 35.4827 41.051C34.0763 43.4935 33.3469 44.8102 32.0115 46.8413C30.6799 48.8724 29.9243 49.83 28.8133 51.2028C27.7024 52.5756 27.0927 53.0207 26.4568 53.709C25.8209 54.3972 25.8583 54.6591 25.6339 54.6441C25.4094 54.6254 25.4094 54.4346 25.3421 53.6229C25.2748 52.8112 25.185 52.2015 25.301 50.5819C25.4132 48.966 25.5291 47.8588 25.9144 45.5321C26.296 43.2018 26.5877 41.7654 27.2161 38.945C27.8483 36.1247 28.2934 34.5237 29.064 31.434C29.8345 28.3481 30.2983 26.6125 31.0614 23.5115C31.8245 20.4106 32.2808 18.7199 32.8793 15.9295C33.4741 13.139 33.7434 11.7475 34.0501 9.55932C34.3606 7.37484 34.5887 6.42848 34.4279 4.99585C34.2671 3.56696 33.9641 2.92359 33.2496 2.40366C32.5352 1.88746 31.8207 1.84258 30.8594 2.4074C29.8981 2.97222 29.4792 3.76521 28.4468 5.23151C27.4181 6.69406 26.8795 7.65164 25.7049 9.72764C24.5342 11.8074 23.8421 13.0492 22.5778 15.6227C21.3135 18.2 20.6814 19.7037 19.3759 22.5989C18.0742 25.494 17.3523 27.0651 16.0656 30.1024C14.7788 33.1435 14.1354 34.7706 12.9385 37.7967C11.7415 40.8228 11.1654 42.4275 10.0844 45.2404C8.99966 48.057 8.4498 49.5233 7.52214 51.8761C6.59449 54.2327 6.15684 55.3585 5.4424 57.0119C4.72795 58.6689 4.23794 59.2487 3.94618 60.1539C3.65816 61.0629 3.9013 61.3808 3.98733 61.5492C4.0771 61.7212 4.23794 61.6651 4.38756 61.0068C4.53718 60.3484 4.46612 59.7874 4.73544 58.2612C5.00476 56.7388 5.13941 55.6653 5.73042 53.391C6.32142 51.1168 6.76656 49.6729 7.69047 46.8825C8.61439 44.092 9.26898 42.4425 10.35 39.4388C11.4348 36.4351 12.0407 34.823 13.1105 31.8605C14.1841 28.8979 14.7751 27.3194 15.7102 24.63C16.6416 21.9405 17.068 20.6463 17.7787 18.4132C18.4894 16.1801 18.7999 15.114 19.2637 13.4607C19.7276 11.8074 19.9819 11.1939 20.1016 10.1466C20.2176 9.09923 20.0904 8.64663 19.851 8.22769C19.6116 7.81249 19.2712 7.75638 18.9046 8.0631Z" fill="black" stroke="black"/>
<path d="M57.5146 33.266C57.2528 33.0453 56.9535 32.8471 56.3513 33.0004C55.7453 33.1575 55.2067 33.2847 54.496 34.0478C53.7853 34.8109 53.5608 35.4467 52.794 36.8233C52.0272 38.1998 51.5297 39.1462 50.6694 40.9341C49.8091 42.7184 49.2742 43.8817 48.4961 45.7557C47.7181 47.6297 47.2543 48.6808 46.7792 50.3004C46.3042 51.9201 46.0199 52.7168 46.1172 53.8502C46.2181 54.9874 46.5473 55.4886 47.2692 55.9749C47.9912 56.4611 48.6645 56.622 49.7268 56.2853C50.7891 55.9487 51.41 55.3427 52.5808 54.2916C53.7516 53.2405 54.3613 52.4924 55.5882 51.0299C56.8114 49.5673 57.5221 48.6284 58.7078 46.9676C59.8936 45.3106 60.5482 44.2894 61.5132 42.7371C62.4783 41.1885 63.1179 40.3581 63.5257 39.221C63.9334 38.0876 63.8212 37.4779 63.5556 37.0627C63.29 36.6437 62.7514 36.6998 62.1978 37.145C61.6442 37.5901 61.1729 38.1998 60.7801 39.2883C60.3873 40.3768 60.335 41.2259 60.2377 42.5837C60.1405 43.9415 60.1068 44.757 60.2976 46.0774C60.4846 47.3978 60.5856 48.1646 61.1803 49.182C61.7751 50.1957 62.2352 50.6969 63.2713 51.157C64.3074 51.6209 65.0181 51.778 66.3573 51.4862C67.6964 51.1944 68.4033 50.7418 69.9669 49.6982C71.5342 48.6546 72.3721 47.9364 74.1787 46.2644C75.9817 44.5924 76.9692 43.545 78.9966 41.3344C81.0202 39.12 82.2172 37.7397 84.3044 35.2036C86.3954 32.6675 87.4801 31.2424 89.4364 28.6502C91.3927 26.0617 92.369 24.6628 94.0859 22.2501C95.7991 19.8375 96.6557 18.633 98.0098 16.5869C99.3638 14.5371 100.082 13.4486 100.853 12.0122C101.627 10.5759 101.881 9.96989 101.874 9.40507C101.866 8.84025 101.35 8.66444 100.819 9.19186C100.284 9.72301 100.022 10.4075 99.2067 12.0571C98.395 13.703 97.8676 14.9972 96.7417 17.4323C95.6158 19.8674 94.8827 21.4085 93.5772 24.2326C92.2755 27.0567 91.5573 28.6464 90.2294 31.5566C88.9015 34.463 88.1572 36.0677 86.9452 38.7758C85.7333 41.484 85.1834 42.8904 84.166 45.1011C83.1523 47.3118 82.5987 48.3591 81.8693 49.8254C81.1399 51.2917 80.7397 51.8004 80.5227 52.4363C80.3058 53.0722 80.5264 53.1956 80.7883 53.0086C81.0464 52.8216 81.4691 52.4101 81.8207 51.5086C82.1723 50.6072 82.3481 49.7618 82.5501 48.505C82.7521 47.2519 82.8942 46.3542 82.8381 45.2358C82.7783 44.1211 82.5763 43.5563 82.2658 42.9204C81.9516 42.2807 81.6524 42.0862 81.2783 42.0526C80.9005 42.0151 80.4591 42.2732 80.3881 42.7408C80.317 43.2121 80.3656 43.8443 80.923 44.3941C81.4766 44.9403 82.0526 45.3218 83.1673 45.4789C84.2857 45.636 84.9852 45.4826 86.5076 45.1759C88.0337 44.8692 88.8903 44.641 90.7868 43.9453C92.6832 43.2495 93.7904 42.8044 95.9899 41.6897C98.1856 40.5788 99.4087 39.8942 101.769 38.3756C104.126 36.8607 105.386 35.9555 107.78 34.1039C110.174 32.2561 111.468 31.205 113.743 29.1252C116.017 27.0455 117.173 25.871 119.148 23.7127C121.126 21.5544 122.069 20.3499 123.625 18.33C125.177 16.3101 125.911 15.3002 126.92 13.6132C127.934 11.9299 128.383 11.1856 128.679 9.9063C128.978 8.63078 128.899 7.99115 128.413 7.23182C127.927 6.46874 127.328 6.07224 126.251 6.10216C125.177 6.13209 124.508 6.41263 123.03 7.37769C121.553 8.34275 120.685 9.13949 118.863 10.92C117.045 12.7005 115.998 13.875 113.933 16.2839C111.868 18.6928 110.627 20.1704 108.539 22.9645C106.452 25.7587 105.293 27.442 103.505 30.2511C101.717 33.0603 100.879 34.5789 99.607 37.014C98.3315 39.4529 97.8414 40.575 97.1382 42.4341C96.435 44.2894 96.0422 45.0562 96.0909 46.3018C96.1395 47.5474 96.5472 48.1422 97.3814 48.6621C98.2192 49.1783 98.9337 49.2269 100.277 48.8977C101.619 48.5686 102.412 47.9888 104.103 47.0125C105.79 46.0362 106.909 45.2133 108.719 44.0163C110.529 42.8156 111.625 41.9441 113.148 41.0202C114.67 40.0962 115.482 39.797 116.335 39.393C117.188 38.9928 117.318 38.8319 117.412 39.0115C117.505 39.191 117.146 39.5015 116.802 40.2908C116.462 41.0838 116.069 41.7982 115.703 42.9652C115.336 44.1323 114.984 44.9402 114.977 46.1297C114.969 47.3192 115.093 47.9963 115.665 48.9165C116.241 49.8329 116.698 50.3977 117.85 50.7157C119.002 51.0336 119.791 50.8877 121.422 50.5099C123.053 50.1321 124.003 49.6646 126 48.8229C127.994 47.9813 129.169 47.4165 131.405 46.2981C133.638 45.1796 134.936 44.4615 137.173 43.2346C139.41 42.0039 140.637 41.2857 142.593 40.1523C144.553 39.019 145.515 38.4616 146.966 37.5602C148.421 36.6624 149.124 36.3856 149.857 35.6525C150.591 34.9156 150.684 34.4817 150.628 33.8869C150.576 33.2884 150.303 32.9107 149.581 32.6675C148.859 32.4206 148.204 32.3122 147.018 32.66C145.833 33.0116 145.103 33.5241 143.648 34.4144C142.193 35.3046 141.31 35.9255 139.747 37.1113C138.183 38.3008 137.274 39.019 135.838 40.3506C134.398 41.686 133.638 42.479 132.565 43.7844C131.488 45.0936 130.867 45.737 130.459 46.8853C130.055 48.0337 130.156 48.6883 130.53 49.5262C130.908 50.3603 131.372 50.8054 132.341 51.0635C133.309 51.3216 134.057 51.2506 135.37 50.8204C136.68 50.3902 137.413 49.8441 138.898 48.9202C140.379 47.9963 141.217 47.4015 142.792 46.2008C144.363 45.0001 145.283 44.1622 146.76 42.9129C148.242 41.6673 149.173 40.9341 150.183 39.9616C151.193 38.9853 151.608 38.5252 151.818 38.0427C152.027 37.5602 151.735 37.3469 151.23 37.5415C150.725 37.7322 150.026 38.0951 149.3 39.0003C148.574 39.9092 148.114 40.8556 147.602 42.075C147.093 43.2982 146.835 44.0201 146.749 45.1011C146.659 46.1821 146.734 46.7095 147.164 47.4801C147.594 48.2469 147.995 48.6658 148.904 48.9464C149.813 49.2232 150.452 49.2269 151.702 48.8716C152.951 48.5199 153.647 47.9925 155.15 47.1808C156.65 46.3691 157.571 45.8118 159.216 44.8206C160.862 43.8293 161.771 43.1784 163.38 42.2209C164.988 41.2633 165.931 40.7434 167.259 40.0327C168.586 39.322 169.353 39.0751 170.015 38.6673C170.681 38.2596 170.681 38.0165 170.576 37.9941C170.475 37.9754 170.086 38.0689 169.507 38.5626C168.927 39.0601 168.437 39.5838 167.681 40.4703C166.926 41.3568 166.305 41.9703 165.729 42.9914C165.149 44.0163 164.842 44.7158 164.79 45.5836C164.734 46.4514 164.902 46.9265 165.452 47.3305C166.002 47.7344 166.537 47.8654 167.543 47.6073C168.549 47.3492 169.103 46.8217 170.49 46.0437C171.878 45.2619 172.798 44.6036 174.482 43.7096C176.165 42.8119 177.193 42.2882 178.903 41.5625C180.616 40.8406 181.562 40.4628 183.032 40.0962C184.502 39.7297 185.266 39.7259 186.246 39.7297C187.226 39.7372 187.506 39.7895 187.933 40.1187C188.359 40.4441 188.34 40.691 188.381 41.3643C188.426 42.0376 188.236 42.565 188.153 43.4889C188.071 44.4128 187.959 44.9814 187.974 45.9801C187.992 46.9788 187.947 47.5511 188.236 48.4788C188.527 49.4102 188.819 49.9563 189.425 50.6259C190.035 51.2992 190.547 51.6209 191.277 51.8378C192.006 52.0548 192.664 51.95 193.072 51.7106C193.48 51.475 193.491 51.0224 193.308 50.6558C193.121 50.2892 192.589 50.1733 192.144 49.874C191.696 49.571 191.415 49.5374 191.075 49.1521C190.734 48.7631 190.532 48.5536 190.442 47.9364C190.353 47.3192 190.543 46.9489 190.622 46.0699C190.704 45.1871 190.891 44.5737 190.843 43.5301C190.79 42.4827 190.749 41.7832 190.364 40.8406C189.979 39.8943 189.728 39.4042 188.913 38.8058C188.101 38.2035 187.558 37.9005 186.298 37.8444C185.037 37.7883 184.207 38.0689 182.61 38.5252C181.013 38.9816 180.085 39.4042 178.308 40.1336C176.531 40.8631 175.48 41.368 173.722 42.1797C171.968 42.9877 170.939 43.5114 169.525 44.1772C168.115 44.843 167.419 45.03 166.668 45.5051C165.916 45.9801 165.8 46.3841 165.77 46.5524C165.744 46.7208 166.047 46.7133 166.533 46.3467C167.019 45.9801 167.49 45.5425 168.201 44.7158C168.908 43.8892 169.443 43.2383 170.075 42.2209C170.711 41.1997 171.156 40.5376 171.373 39.6212C171.594 38.7085 171.56 38.1736 171.171 37.6537C170.782 37.1337 170.378 36.8532 169.428 37.0215C168.474 37.1898 167.782 37.721 166.413 38.499C165.044 39.2733 164.184 39.913 162.583 40.9005C160.982 41.8842 160.062 42.5089 158.408 43.4253C156.755 44.3418 155.794 44.8318 154.316 45.4789C152.839 46.1223 152.053 46.3168 151.028 46.6534C150.003 46.9938 149.697 47.121 149.199 47.1659C148.702 47.2145 148.567 47.1846 148.541 46.8891C148.518 46.5936 148.713 46.3991 149.079 45.6884C149.442 44.9777 149.824 44.4053 150.362 43.343C150.901 42.2807 151.399 41.4428 151.769 40.373C152.143 39.307 152.337 38.6487 152.225 37.9978C152.109 37.3507 151.855 37.0215 151.193 37.1337C150.535 37.246 150.015 37.6387 148.922 38.5589C147.83 39.4828 147.146 40.4591 145.732 41.7383C144.321 43.0139 143.409 43.8293 141.86 44.9477C140.312 46.0699 139.429 46.5823 137.989 47.3417C136.549 48.101 135.741 48.3479 134.656 48.7406C133.571 49.1334 133.137 49.2456 132.565 49.3092C131.993 49.3728 131.858 49.3915 131.794 49.0511C131.731 48.7145 131.836 48.4676 132.247 47.6147C132.655 46.7656 132.92 46.025 133.844 44.7944C134.772 43.5637 135.498 42.7333 136.867 41.4578C138.236 40.1823 139.145 39.4753 140.689 38.4167C142.234 37.3582 143.169 36.8382 144.598 36.1649C146.027 35.4954 146.831 35.4542 147.834 35.0577C148.836 34.665 149.195 34.4518 149.607 34.1899C150.018 33.9243 150.067 33.7149 149.887 33.7373C149.708 33.7635 149.45 33.7822 148.709 34.3096C147.969 34.837 147.523 35.4131 146.177 36.3744C144.834 37.3395 143.895 37.9567 141.984 39.1274C140.072 40.302 138.849 41.0239 136.627 42.2396C134.405 43.4553 133.104 44.1547 130.874 45.2021C128.641 46.2532 127.437 46.7694 125.473 47.4801C123.509 48.1908 122.492 48.505 121.059 48.7631C119.626 49.0249 119.065 48.9164 118.306 48.7818C117.547 48.6471 117.397 48.5723 117.259 48.0973C117.12 47.626 117.397 47.2931 117.61 46.4103C117.827 45.5275 118.067 44.8393 118.336 43.6834C118.605 42.5313 118.994 41.7271 118.957 40.6461C118.923 39.5688 118.803 38.8806 118.164 38.2933C117.528 37.706 116.941 37.433 115.77 37.7098C114.599 37.9866 113.892 38.6748 112.314 39.6773C110.735 40.6835 109.684 41.5588 107.877 42.7333C106.071 43.9041 104.907 44.6672 103.28 45.55C101.653 46.4327 100.804 46.7469 99.7416 47.1509C98.6831 47.5549 98.4063 47.7457 97.9686 47.5773C97.5347 47.4053 97.5235 47.2556 97.5721 46.3018C97.6208 45.348 97.6432 44.5849 98.2117 42.8119C98.7841 41.0389 99.2292 39.8569 100.43 37.4367C101.631 35.0128 102.457 33.4942 104.215 30.7037C105.977 27.9096 107.133 26.2338 109.224 23.477C111.311 20.724 112.568 19.2577 114.666 16.9273C116.765 14.6007 117.865 13.4636 119.712 11.8327C121.564 10.2055 122.559 9.58835 123.909 8.7804C125.26 7.9687 125.768 7.97992 126.464 7.78541C127.16 7.59464 127.246 7.46747 127.384 7.8116C127.519 8.15573 127.455 8.46993 127.149 9.50981C126.842 10.5497 126.722 11.3689 125.858 13.011C124.99 14.6568 124.291 15.7079 122.817 17.724C121.34 19.7402 120.408 20.9484 118.471 23.0992C116.537 25.2463 115.392 26.4133 113.14 28.4669C110.888 30.5204 109.602 31.5641 107.215 33.3707C104.833 35.1812 103.572 36.0639 101.223 37.5115C98.8738 38.9554 97.6432 39.6062 95.4625 40.605C93.2855 41.6074 92.1633 42.0002 90.3229 42.5089C88.4826 43.0214 87.5961 43.1223 86.2645 43.1597C84.9291 43.2009 84.4465 42.8867 83.6573 42.7071C82.868 42.5313 82.7558 42.3705 82.3219 42.2658C81.8843 42.161 81.7833 42.1722 81.484 42.1872C81.181 42.2059 81.0501 42.1648 80.8219 42.3518C80.5938 42.5426 80.5302 42.5762 80.3469 43.1298C80.1636 43.6797 80.0626 44.1098 79.913 45.1086C79.7634 46.1036 79.7222 46.9003 79.595 48.116C79.4716 49.3316 79.1836 50.1658 79.2921 51.1907C79.4043 52.2119 79.6923 52.8365 80.1487 53.2256C80.6013 53.6183 80.9791 53.7006 81.5701 53.1395C82.1573 52.5747 82.3818 51.9351 83.0925 50.4127C83.7994 48.8865 84.1772 47.7681 85.1161 45.5163C86.0512 43.2607 86.5861 41.858 87.7719 39.1424C88.9576 36.423 89.6983 34.8221 91.0374 31.9269C92.3765 29.028 93.0984 27.442 94.4712 24.6553C95.844 21.8723 96.6594 20.3761 97.8976 18.0008C99.1394 15.6256 99.8688 14.4286 100.673 12.779C101.481 11.1257 101.844 10.4898 101.937 9.74172C102.031 8.99361 101.601 8.70933 101.141 9.03102C100.681 9.34896 100.437 9.93623 99.6369 11.3352C98.8364 12.7379 98.3913 13.9536 97.1345 16.0333C95.8814 18.1131 95.036 19.3213 93.3603 21.7414C91.6845 24.1615 90.7082 25.5605 88.7594 28.1415C86.8106 30.7187 85.7221 32.1364 83.6236 34.6388C81.5252 37.1412 80.317 38.5065 78.2672 40.6498C76.2136 42.7932 75.1924 43.8106 73.367 45.3517C71.5454 46.8966 70.629 47.5212 69.144 48.3666C67.659 49.212 66.967 49.3653 65.9458 49.5823C64.9284 49.7992 64.6216 49.7281 64.0531 49.4513C63.4845 49.1783 63.3835 48.9314 63.0992 48.2095C62.815 47.4876 62.6766 46.9153 62.6317 45.8529C62.5905 44.7869 62.699 44.0575 62.8898 42.883C63.0768 41.7122 63.4471 41.0202 63.5818 39.9803C63.7164 38.9442 63.6902 38.3008 63.5593 37.6948C63.4284 37.0888 63.29 36.8083 62.9272 36.9504C62.5643 37.0963 62.2988 37.418 61.7414 38.413C61.1841 39.408 60.9896 40.3955 60.1405 41.9291C59.2876 43.4665 58.6517 44.4951 57.4922 46.0923C56.3288 47.6895 55.577 48.5873 54.3314 49.9227C53.0858 51.258 52.3564 51.864 51.2641 52.7655C50.1756 53.6632 49.5547 53.9662 48.8777 54.4225C48.2044 54.8751 48.0847 55.1445 47.8977 55.0285C47.7106 54.9125 47.849 54.7031 47.9388 53.8465C48.0323 52.9899 47.965 52.2418 48.3615 50.7418C48.7542 49.2419 49.1582 48.1571 49.9138 46.3504C50.6731 44.54 51.2193 43.3767 52.1507 41.6972C53.0783 40.0214 53.688 39.1349 54.5633 37.9641C55.4386 36.7933 55.9772 36.5128 56.5308 35.8432C57.0844 35.1737 57.1069 34.9642 57.3313 34.6163C57.5558 34.2685 57.6156 34.377 57.653 34.1076C57.6904 33.8383 57.7727 33.4867 57.5146 33.266Z" fill="black" stroke="black"/>
<path d="M272.289 11.1261C272.211 10.681 271.96 10.2209 271.294 9.74585C270.628 9.2708 270.097 8.90796 268.964 8.74711C267.83 8.59001 267.06 8.6536 265.623 8.95658C264.183 9.26331 263.413 9.59248 261.771 10.2658C260.132 10.9391 259.175 11.3842 257.417 12.3306C255.662 13.2732 254.63 13.8679 252.988 14.9901C251.346 16.1122 250.497 16.7369 249.21 17.9414C247.919 19.1458 247.291 19.7481 246.554 21.0161C245.817 22.2879 245.582 22.9949 245.522 24.2853C245.462 25.5758 245.649 26.294 246.247 27.4723C246.846 28.6506 247.467 29.1293 248.514 30.1767C249.561 31.2278 250.283 31.7365 251.48 32.7203C252.674 33.704 253.403 34.1716 254.488 35.0993C255.573 36.0307 256.182 36.502 256.904 37.3698C257.63 38.2338 257.884 38.6528 258.105 39.4383C258.322 40.2238 258.307 40.5006 258.004 41.2936C257.697 42.0866 257.45 42.5317 256.579 43.4107C255.703 44.286 255.034 44.8209 253.642 45.685C252.251 46.5453 251.331 46.9979 249.614 47.7161C247.897 48.4306 246.82 48.7709 245.062 49.2647C243.307 49.7585 242.339 50.0016 240.831 50.1849C239.324 50.3682 238.598 50.1811 237.528 50.1736C236.458 50.1662 236.006 50.0801 235.486 50.14C234.962 50.2036 234.861 50.3495 234.914 50.4879C234.966 50.6263 235.123 50.8395 235.74 50.8357C236.361 50.832 236.814 50.7534 238.007 50.4617C239.196 50.1699 239.993 49.8594 241.703 49.3807C243.408 48.9056 244.411 48.6438 246.539 48.0827C248.671 47.5216 249.936 47.2448 252.352 46.5752C254.768 45.9057 256.122 45.5541 258.625 44.7424C261.127 43.9269 262.451 43.4444 264.864 42.5055C267.277 41.5704 268.578 41.043 270.688 40.0517C272.802 39.0642 273.752 38.4882 275.42 37.5643C277.088 36.6441 277.855 36.2513 279.03 35.4359C280.2 34.6242 280.761 34.2838 281.281 33.502C281.801 32.724 281.801 32.1891 281.629 31.5308C281.457 30.8762 281.169 30.5433 280.425 30.2216C279.677 29.8999 279.048 29.7204 277.896 29.9223C276.744 30.1281 276.052 30.5208 274.664 31.239C273.277 31.9609 272.427 32.4921 270.965 33.5245C269.502 34.5531 268.635 35.1853 267.352 36.3935C266.069 37.5979 265.466 38.2675 264.546 39.5542C263.63 40.841 263.125 41.5442 262.766 42.8272C262.403 44.1065 262.358 44.8509 262.743 45.9655C263.128 47.0765 263.607 47.7198 264.685 48.3931C265.758 49.0627 266.521 49.1787 268.126 49.3208C269.727 49.4592 270.699 49.3694 272.704 49.0926C274.709 48.8196 275.828 48.5615 278.147 47.948C280.47 47.3346 281.771 46.8745 284.307 46.0254C286.84 45.1725 288.287 44.6751 290.82 43.6913C293.352 42.7075 294.714 42.124 296.958 41.1028C299.202 40.0779 300.351 39.5056 302.041 38.5854C303.736 37.6653 304.529 37.3361 305.427 36.5094C306.324 35.6828 306.519 35.1815 306.538 34.4596C306.556 33.7377 306.264 33.2888 305.524 32.9073C304.783 32.5258 304.102 32.3874 302.838 32.5482C301.574 32.709 300.781 33.0794 299.199 33.7115C297.616 34.3437 296.655 34.7776 294.923 35.709C293.191 36.6404 292.178 37.2426 290.539 38.3722C288.901 39.4981 288.041 40.1602 286.728 41.346C285.411 42.5317 284.768 43.1601 283.963 44.3047C283.155 45.4493 282.826 46.0516 282.688 47.069C282.553 48.0827 282.729 48.6475 283.279 49.3807C283.825 50.1101 284.375 50.5103 285.43 50.7235C286.488 50.9367 287.203 50.8058 288.557 50.4392C289.915 50.0727 290.689 49.6799 292.207 48.8869C293.726 48.0939 294.583 47.5366 296.157 46.4705C297.736 45.4082 298.578 44.7274 300.089 43.5641C301.604 42.4008 302.52 41.6639 303.721 40.6577C304.922 39.6515 305.61 39.2101 306.092 38.5256C306.575 37.8411 306.44 37.4034 306.13 37.2426C305.819 37.0817 305.236 37.1603 304.536 37.7176C303.837 38.2787 303.343 38.9932 302.636 40.0443C301.929 41.0991 301.473 41.8135 301.002 42.9843C300.53 44.1551 300.283 44.8696 300.283 45.8982C300.287 46.9269 300.485 47.4243 301.009 48.1276C301.536 48.8308 301.933 49.1936 302.909 49.4181C303.885 49.6425 304.577 49.5826 305.89 49.2572C307.203 48.9318 307.959 48.5316 309.474 47.7909C310.989 47.054 311.815 46.5042 313.458 45.5653C315.1 44.6302 316.042 44.0466 317.684 43.1078C319.326 42.1651 320.247 41.6153 321.668 40.8634C323.089 40.1153 323.92 39.8385 324.788 39.3485C325.655 38.8622 325.869 38.548 326.015 38.4171C326.16 38.2862 325.914 38.3012 325.517 38.6939C325.124 39.0904 324.72 39.5094 324.04 40.3884C323.359 41.2712 322.936 42.038 322.117 43.0965C321.298 44.1514 320.621 44.7274 319.944 45.6663C319.27 46.6089 318.911 47.1064 318.739 47.7984C318.567 48.4904 318.694 48.8682 319.08 49.1263C319.465 49.3881 319.94 49.448 320.669 49.0926C321.399 48.741 321.825 48.2697 322.723 47.3645C323.624 46.463 324.066 45.7299 325.165 44.5778C326.269 43.4257 326.953 42.7524 328.229 41.6115C329.504 40.4707 330.238 39.8797 331.543 38.866C332.849 37.856 333.503 37.3922 334.76 36.5581C336.021 35.7239 336.649 35.3723 337.838 34.7028C339.028 34.0295 339.567 33.7975 340.704 33.1991C341.837 32.6006 342.357 32.3387 343.517 31.7103C344.672 31.0857 345.275 30.8201 346.498 30.0607C347.721 29.3052 348.319 28.875 349.625 27.9286C350.93 26.986 351.663 26.4287 353.029 25.3364C354.39 24.2405 355.097 23.6494 356.44 22.46C357.783 21.2705 358.479 20.5972 359.736 19.389C360.996 18.1808 361.658 17.5262 362.732 16.419C363.802 15.3118 364.52 14.8031 365.088 13.853C365.653 12.9066 365.754 12.2707 365.56 11.6722C365.365 11.0775 364.95 10.6698 364.116 10.8717C363.278 11.0775 362.694 11.5712 361.385 12.6934C360.072 13.8156 359.253 14.7357 357.562 16.4826C355.872 18.2294 354.783 19.3216 352.932 21.4276C351.08 23.5335 349.995 24.7903 348.312 27.0197C346.629 29.249 345.761 30.4834 344.515 32.5744C343.27 34.6654 342.705 35.6903 342.08 37.4745C341.456 39.2587 341.291 40.0704 341.384 41.4993C341.482 42.9245 341.729 43.6726 342.555 44.604C343.386 45.5391 344.089 45.8458 345.529 46.1638C346.969 46.4855 347.93 46.4518 349.752 46.2012C351.577 45.9506 352.666 45.6252 354.648 44.907C356.631 44.1925 357.746 43.6202 359.665 42.6178C361.58 41.6153 362.593 41.0131 364.232 39.8946C365.87 38.7725 366.641 38.1141 367.856 37.0182C369.072 35.9222 369.738 35.4209 370.306 34.4147C370.871 33.4085 370.909 32.7913 370.688 31.9834C370.467 31.1754 370.089 30.663 369.207 30.3787C368.324 30.0982 367.531 30.1393 366.27 30.5732C365.01 31.0071 364.206 31.5757 362.904 32.5445C361.598 33.5133 360.873 34.209 359.754 35.4135C358.636 36.6217 357.97 37.3062 357.308 38.5705C356.642 39.8348 356.388 40.5679 356.436 41.7387C356.489 42.9058 356.724 43.6202 357.559 44.4207C358.393 45.2249 359.092 45.5017 360.607 45.7411C362.126 45.9842 363.117 45.8982 365.137 45.6326C367.161 45.3671 368.402 45.0715 370.718 44.4207C373.037 43.7698 374.312 43.306 376.725 42.3784C379.142 41.4544 380.481 40.8372 382.792 39.7899C385.1 38.7425 386.308 38.1029 388.28 37.1341C390.251 36.1653 391.201 35.6903 392.645 34.9459C394.089 34.1978 394.803 33.9434 395.495 33.401C396.187 32.8624 396.195 32.5183 396.105 32.249C396.011 31.9796 395.611 31.9048 395.031 32.0582C394.455 32.2153 393.891 32.4023 393.221 33.0232C392.548 33.6479 392.166 34.2165 391.68 35.1778C391.19 36.1391 390.999 36.7675 390.786 37.8299C390.576 38.8922 390.532 39.4682 390.621 40.4819C390.711 41.4993 390.891 42.0006 391.238 42.9132C391.59 43.8222 391.897 44.2935 392.372 45.0341C392.851 45.7785 393.21 46.1226 393.632 46.6314C394.059 47.1363 394.302 47.2672 394.496 47.5777C394.691 47.8882 394.77 47.9667 394.601 48.1874C394.429 48.4044 394.246 48.3782 393.651 48.6737C393.056 48.9692 392.667 49.2423 391.627 49.6612C390.584 50.0801 389.851 50.3682 388.441 50.7721C387.034 51.1761 386.11 51.3818 384.584 51.6848C383.058 51.9878 382.171 52.1225 380.817 52.2833C379.467 52.4442 378.771 52.317 377.825 52.4853C376.879 52.6536 376.561 52.908 376.093 53.1212C375.625 53.3382 375.607 53.383 375.487 53.5588C375.367 53.7347 375.352 53.8244 375.494 53.9965C375.637 54.1648 375.678 54.2696 376.19 54.4117C376.703 54.5538 377.073 54.7371 378.057 54.7035C379.037 54.6735 379.721 54.4828 381.098 54.2508C382.478 54.0189 383.376 53.8431 384.943 53.5514C386.51 53.2596 387.423 53.1062 388.934 52.7958C390.449 52.4853 391.298 52.4329 392.507 52.0028C393.718 51.5764 394.242 51.2621 394.986 50.6524C395.731 50.0427 395.959 49.6836 396.232 48.9542C396.509 48.2248 396.49 47.7423 396.367 47.0092C396.243 46.276 395.989 45.9655 395.619 45.2922C395.248 44.6227 394.949 44.3085 394.515 43.6464C394.081 42.9843 393.763 42.6439 393.445 41.9781C393.127 41.3086 392.955 41.0018 392.922 40.3136C392.884 39.6216 392.974 39.2513 393.266 38.5293C393.558 37.8111 393.906 37.4334 394.377 36.7114C394.848 35.9895 395.245 35.6267 395.622 34.916C396.004 34.2053 396.183 33.7527 396.27 33.1579C396.359 32.5669 396.397 32.1891 396.071 31.946C395.746 31.6991 395.477 31.5981 394.646 31.9385C393.819 32.2826 393.311 32.8325 391.93 33.6591C390.546 34.4858 389.652 35.0432 387.737 36.0718C385.818 37.0967 384.614 37.7401 382.336 38.7912C380.054 39.8423 378.719 40.452 376.332 41.331C373.946 42.2138 372.667 42.6439 370.396 43.2013C368.126 43.7586 366.88 43.9681 364.98 44.1177C363.08 44.2673 362.141 44.1476 360.899 43.9456C359.657 43.7437 359.283 43.5491 358.767 43.1078C358.247 42.6664 358.251 42.4606 358.303 41.7387C358.355 41.0205 358.46 40.5081 359.032 39.5094C359.601 38.5106 360.136 37.7887 361.153 36.7451C362.171 35.6977 362.923 35.0693 364.123 34.2838C365.324 33.4983 366.177 33.2701 367.157 32.8175C368.141 32.3649 368.567 32.148 369.027 32.0133C369.487 31.8786 369.536 31.8749 369.461 32.148C369.386 32.4173 369.192 32.623 368.649 33.3711C368.111 34.1155 367.804 34.8 366.76 35.881C365.72 36.9583 364.987 37.6578 363.442 38.765C361.898 39.8759 360.899 40.4669 359.044 41.4245C357.188 42.3784 356.074 42.9095 354.173 43.5417C352.277 44.1776 351.211 44.4132 349.554 44.589C347.897 44.7686 347.044 44.6713 345.896 44.4394C344.751 44.2075 344.422 44.0466 343.82 43.4332C343.217 42.8235 342.997 42.4906 342.884 41.3759C342.776 40.2649 342.754 39.5206 343.266 37.8673C343.778 36.2177 344.276 35.1666 345.45 33.1205C346.621 31.0744 347.47 29.8326 349.131 27.6406C350.796 25.4524 351.877 24.2031 353.754 22.1719C355.636 20.1371 356.781 19.1009 358.539 17.485C360.3 15.8654 361.288 15.1322 362.556 14.0849C363.824 13.0375 364.43 12.757 364.879 12.2483C365.328 11.7358 365.111 11.474 364.797 11.5338C364.482 11.5937 363.981 11.8031 363.304 12.5438C362.627 13.2881 362.347 14.0998 361.411 15.2482C360.48 16.3965 359.84 17.0661 358.64 18.278C357.443 19.49 356.743 20.1483 355.423 21.3116C354.102 22.4712 353.395 23.036 352.041 24.0833C350.683 25.127 349.939 25.6506 348.645 26.5371C347.347 27.4199 346.767 27.8015 345.563 28.5084C344.358 29.2116 343.775 29.4473 342.626 30.0607C341.478 30.6705 340.962 30.9472 339.825 31.5757C338.691 32.2003 338.153 32.4697 336.956 33.1953C335.759 33.9172 335.119 34.3137 333.84 35.1928C332.56 36.0718 331.902 36.5656 330.563 37.5905C329.22 38.6191 328.48 39.2176 327.129 40.3248C325.775 41.4283 325.038 42.0754 323.8 43.1152C322.558 44.1551 321.844 44.6451 320.924 45.5204C320.003 46.3957 319.566 46.8296 319.192 47.4917C318.821 48.1538 318.878 48.5577 319.065 48.8271C319.248 49.0964 319.543 49.1413 320.119 48.8383C320.696 48.539 321.141 48.1612 321.941 47.3271C322.742 46.493 323.254 45.7673 324.122 44.6676C324.99 43.5678 325.685 42.932 326.28 41.836C326.875 40.7363 327.099 40.0443 327.096 39.1839C327.088 38.3236 326.879 37.8673 326.254 37.5306C325.626 37.1902 325.042 37.1079 323.961 37.4857C322.876 37.8635 322.248 38.5518 320.841 39.4121C319.435 40.2724 318.552 40.8373 316.925 41.7874C315.294 42.7375 314.333 43.3098 312.694 44.1663C311.052 45.0229 310.192 45.5055 308.722 46.0778C307.252 46.6463 306.466 46.7548 305.348 47.0204C304.233 47.2822 303.758 47.3533 303.141 47.3982C302.52 47.4393 302.404 47.4767 302.251 47.2373C302.101 46.9979 302.142 46.8184 302.386 46.2049C302.629 45.5952 302.92 45.1015 303.463 44.1776C304.009 43.2536 304.518 42.6215 305.109 41.5779C305.7 40.538 306.175 39.8348 306.422 38.9745C306.668 38.1104 306.639 37.6092 306.347 37.265C306.055 36.9172 305.722 36.8349 304.963 37.2426C304.207 37.6503 303.725 38.2825 302.558 39.3036C301.394 40.3248 300.59 41.1814 299.135 42.3484C297.684 43.5192 296.838 44.1738 295.293 45.1538C293.752 46.1339 292.877 46.6164 291.422 47.2448C289.967 47.8732 289.17 48.0266 288.014 48.2922C286.862 48.5615 286.372 48.5577 285.658 48.5839C284.94 48.6064 284.689 48.6513 284.431 48.4156C284.177 48.1837 284.184 48.0341 284.382 47.4169C284.584 46.7997 284.753 46.3209 285.43 45.3297C286.11 44.3421 286.589 43.6202 287.779 42.4719C288.968 41.3235 289.802 40.6577 291.373 39.5879C292.944 38.5181 293.947 37.9309 295.641 37.1229C297.332 36.3149 298.316 35.9932 299.834 35.5481C301.353 35.103 302.161 35.1404 303.238 34.9047C304.316 34.6691 304.742 34.5045 305.217 34.3773C305.692 34.2464 305.786 34.0856 305.61 34.2539C305.43 34.4222 305.176 34.5681 304.334 35.2115C303.489 35.8548 302.958 36.487 301.391 37.467C299.823 38.4433 298.686 39.0567 296.494 40.1078C294.306 41.1589 292.948 41.7462 290.442 42.7225C287.936 43.7025 286.484 44.1888 283.967 44.9967C281.45 45.8047 280.14 46.2311 277.855 46.7585C275.57 47.2859 274.447 47.473 272.543 47.6301C270.636 47.7872 269.689 47.7348 268.324 47.544C266.959 47.3495 266.487 47.1027 265.721 46.665C264.954 46.2311 264.714 46.0254 264.486 45.3633C264.262 44.7012 264.296 44.3234 264.587 43.3584C264.883 42.3933 265.182 41.6901 265.964 40.5417C266.742 39.3897 267.292 38.7164 268.489 37.6092C269.686 36.5057 270.538 35.8922 271.952 35.0095C273.363 34.1267 274.242 33.6928 275.547 33.2028C276.853 32.7128 277.541 32.81 278.472 32.5557C279.404 32.3051 279.778 32.1143 280.204 31.9385C280.634 31.7664 280.668 31.5944 280.616 31.6916C280.563 31.7851 280.447 31.9273 279.938 32.4173C279.43 32.9036 279.104 33.3225 278.068 34.1305C277.036 34.9384 276.34 35.4733 274.769 36.4533C273.194 37.4371 272.263 38.0281 270.206 39.0418C268.148 40.0592 266.862 40.5904 264.479 41.5293C262.1 42.4644 260.783 42.9432 258.299 43.7287C255.816 44.5179 254.473 44.8509 252.056 45.4568C249.644 46.0665 248.376 46.3246 246.232 46.7623C244.085 47.2037 243.087 47.3944 241.336 47.6525C239.582 47.9106 238.725 47.7909 237.465 48.0528C236.2 48.3146 235.658 48.4904 235.022 48.9654C234.39 49.4405 234.278 49.8968 234.296 50.4317C234.311 50.9704 234.465 51.2883 235.104 51.6437C235.744 51.999 236.294 52.1786 237.491 52.2123C238.684 52.2422 239.484 52.1075 241.085 51.8083C242.683 51.509 243.655 51.2472 245.481 50.716C247.302 50.1849 248.387 49.8594 250.194 49.1487C252 48.4343 252.965 48.0228 254.51 47.1513C256.051 46.276 256.829 45.8084 257.914 44.7798C258.999 43.7511 259.504 43.1826 259.927 42.008C260.353 40.8373 260.342 40.1004 260.043 38.9221C259.74 37.7438 259.283 37.164 258.415 36.1167C257.544 35.0656 256.848 34.6429 255.7 33.6741C254.551 32.7053 253.841 32.249 252.677 31.2764C251.514 30.3039 250.826 29.754 249.879 28.8114C248.933 27.8725 248.458 27.4573 247.953 26.5633C247.448 25.6693 247.351 25.2916 247.358 24.3452C247.37 23.3988 247.426 22.8976 248.002 21.8353C248.581 20.773 249.09 20.167 250.254 19.0374C251.413 17.9077 252.236 17.2643 253.811 16.1908C255.382 15.1173 256.403 14.5337 258.116 13.6697C259.829 12.8056 260.806 12.3941 262.373 11.8705C263.936 11.3505 264.696 11.1635 265.938 11.0625C267.183 10.9653 267.699 11.2421 268.586 11.3767C269.476 11.5076 269.757 11.6049 270.374 11.7246C270.995 11.8443 271.298 12.0986 271.683 11.979C272.065 11.8593 272.364 11.575 272.289 11.1261Z" fill="black" stroke="black"/>
</svg>
