<svg xmlns="http://www.w3.org/2000/svg" fill="none" viewBox="0 0 128 128">
    <path d="M64 19C55.0999 19 46.3996 21.6392 38.9994 26.5839C31.5991 31.5285 25.8314 38.5566 22.4254 46.7792C19.0195 55.0019 18.1283 64.0499 19.8647 72.779C21.601 81.5082 25.8869 89.5264 32.1802 95.8198C38.4736 102.113 46.4918 106.399 55.2209 108.135C63.9501 109.872 72.9981 108.981 81.2208 105.575C89.4434 102.169 96.4715 96.4009 101.416 89.0006C106.361 81.6004 109 72.9001 109 64C108.987 52.0693 104.241 40.6311 95.8052 32.1948C87.3689 23.7585 75.9307 19.0132 64 19ZM99 64C99.0097 69.4776 97.7247 74.8799 95.25 79.7667L69 61.3958V29.3625C77.325 30.5746 84.9364 34.7406 90.4442 41.0998C95.952 47.4591 98.9888 55.5872 99 64ZM59 29.3625V61.3958L32.75 79.7667C30.2402 74.81 28.9475 69.3267 28.9789 63.7709C29.0104 58.2151 30.3651 52.7467 32.9309 47.8188C35.4967 42.8909 39.1997 38.6452 43.7331 35.4334C48.2666 32.2217 53.5001 30.1363 59 29.35V29.3625ZM38.5125 87.95L59 73.6042V98.6375C51.1564 97.5016 43.932 93.7329 38.5125 87.95ZM69 98.6375V73.6042L89.4875 87.95C84.068 93.7329 76.8436 97.5016 69 98.6375Z" fill="#F4F4F4"/>
    <style>
        path { fill: #000; }
        @media (prefers-color-scheme: dark) {
            path { fill: #FFF; }
        }
    </style>
</svg>